PathFileType	4	(X/Y/Z)	T1_P1_Vision_Movement_3_0-659.trc
DataRate	CameraRate	NumFrames	NumMarkers	Units	OrigDataRate	OrigDataStartFrame	OrigNumFrames
60	60	4	27	m	60	494	659
Frame#	Time	RHip			RKnee			RAnkle			RBigToe			RSmallToe			RHeel			LHip			LKnee			LAnkle			LBigToe			LSmallToe			LHeel			Neck			Head			Nose			RShoulder			RElbow			RWrist			RThumb			RIndex			RPinky			LShoulder			LElbow			LWrist			LThumb			LIndex			LPinky		
		X1	Y1	Z1	X2	Y2	Z2	X3	Y3	Z3	X4	Y4	Z4	X5	Y5	Z5	X6	Y6	Z6	X7	Y7	Z7	X8	Y8	Z8	X9	Y9	Z9	X10	Y10	Z10	X11	Y11	Z11	X12	Y12	Z12	X13	Y13	Z13	X14	Y14	Z14	X15	Y15	Z15	X16	Y16	Z16	X17	Y17	Z17	X18	Y18	Z18	X19	Y19	Z19	X20	Y20	Z20	X21	Y21	Z21	X22	Y22	Z22	X23	Y23	Z23	X24	Y24	Z24	X25	Y25	Z25	X26	Y26	Z26	X27	Y27	Z27
495	8.25	-107.39715747777404	3961.5575371235545	-655.6999944122288	236.09108250619244	4064.0123595558343	-670.987784997119	600.691761774791	4267.426708884724	-692.6885204366474	684.3191220095493	4171.984402487809	-643.7195021301637	681.4591970463014	4162.35500773312	-708.1735606090451	645.3913412117569	4319.251202374629	-698.6155314711353	-159.29139894435815	4063.760854039634	-497.763557021273	199.136985682381	4189.265107277313	-500.97432775434515	560.6283696081999	4335.251323456121	-514.3751751456685	637.6108395451525	4214.712035084868	-400.8514934814812	616.7503258833459	4283.005837785585	-380.34814413092624	607.0715341821651	4375.224438745184	-538.7447163754526	-694.8571305191093	3791.8238743144116	-590.0816354209029	-930.4348185995605	3599.4625205049265	-465.5284585312594	-780.3573887857004	3616.9371328158854	-442.77308768356687	-580.377669075365	3749.736686605319	-725.212818037653	-323.1710744909967	3809.647873103231	-751.5701301353192	-46.2445488404034	3875.836555889927	-733.3101979872251	62.6899568432679	3858.5346203699037	-613.7918634785834	81.73998173261326	3864.0391625555767	-622.1769877779357	87.33411758432149	3952.2746964145854	-748.3526896348512	-635.2672957875536	3885.169613995645	-462.0025835183303	-415.16734038900313	4110.483507697503	-444.3237454820944	-157.77318909998624	4094.6092572207913	-366.0969284169969	-38.485564044812726	4045.9112218670907	-372.2957290058213	-5.364831108076858	4123.135211560567	-364.9707647474408	-33.014848585731556	4148.604808631077	-328.96449545945967
496	8.266666666666667	-113.0636932065402	3958.479854699379	-655.6488097722923	233.1903991423789	4042.0919865664187	-654.5431951506255	600.6470118991631	4267.918771336573	-693.110507126689	684.2173729542285	4171.974888093295	-643.5510920688718	676.0014196840531	4139.86786679701	-691.4236800285786	638.6363617246552	4316.531586423537	-699.7884465281456	-154.6644047378945	4065.654910380001	-499.70909423427344	197.4646712651022	4157.898754183292	-494.26142432184986	560.2694206508941	4334.993631195355	-514.4524643719803	641.8889719848041	4245.986598918383	-406.5537453447382	616.7283050879969	4283.868346488077	-380.40522286780157	607.4469357874927	4375.652345384414	-539.3199435781988	-690.4533729856075	3766.124149974029	-583.5651180589979	-930.4664013465554	3599.5439041832415	-465.6021147232363	-780.2921512711861	3616.8118247178754	-442.74876531673453	-580.3415943700468	3749.662312144876	-725.1551515785654	-318.4203578065277	3812.7800863220314	-753.3579140198253	-51.7148049055373	3872.449297491499	-731.7869713601069	62.260401383330866	3858.93992377896	-613.7546681079373	76.879440221022	3861.4031138739883	-620.744716694389	87.42139036734666	3952.9405833264036	-748.5969051493146	-635.2574361957655	3885.0398414168358	-461.9621925468419	-415.25735854434316	4110.842199244617	-444.60451367018277	-163.11472449046707	4094.1267318158352	-366.44379922151523	-43.64151580845763	4044.018575253993	-373.0214331024892	-5.789283913511175	4123.367959873035	-365.1205532319562	-32.945373161673196	4150.391705145479	-334.91157921584784
497	8.283333333333333	-117.38035290807788	3925.1340532420645	-645.8836498303416	247.47332328116272	4066.035520366895	-669.7124692824879	605.0644539469469	4288.755945892216	-708.40079721685	691.1456513038945	4176.530826019296	-646.0666539845982	681.2556491331829	4161.921169618855	-708.2533777320053	638.575273374817	4316.043604333498	-699.324426152847	-160.52390422516402	4061.5367310383313	-497.93390793980944	191.8872546626797	4153.486945036584	-492.1644197530439	560.7896454433431	4334.965163022757	-514.1693489215933	637.4499296092853	4214.245874421362	-400.3078270347835	612.3450989836174	4250.393612013822	-374.2551594278174	608.338656620927	4375.922058415514	-539.3886604439493	-690.3925616398809	3765.8903741148793	-583.5161629538951	-930.2851624873967	3599.4337757904855	-465.3473794661285	-780.3224956256479	3617.0253160065117	-442.8305570583978	-580.341232148411	3749.3544856742874	-725.0661775635116	-323.79002381532894	3828.597470952894	-767.4880376406359	-51.67542682331471	3872.4397685379054	-731.7877561627804	62.3479391357449	3859.730992312042	-614.1566148546978	76.6386732454653	3861.6987624326794	-620.6456012275299	82.3608137999241	3953.138418271214	-748.778918998871	-635.2271766520503	3884.9617572930247	-461.87705837485544	-415.3644046921095	4110.939509257331	-444.4573437371977	-168.7439094631242	4092.4128851950964	-367.21022790695207	-49.48484597949167	4073.298996142678	-379.071540749206	-5.883293080529769	4152.61628005549	-370.0057642961521	-33.77512312424951	4150.401034378687	-329.88968659773445
498	8.3	-117.13221129312247	3925.215688704456	-645.87114230788	244.8201555721494	4045.0013659981028	-653.7730192744451	610.9610668948484	4289.126263276814	-708.2789210454645	684.0968425513296	4171.913030009255	-643.5890797548001	674.3611100600467	4158.626032867382	-708.4882716885695	638.5629829437929	4317.101567383714	-700.2734993959067	-154.21665270877838	4064.1188019614697	-497.5005435913027	196.91478497544685	4153.991948005022	-491.9375088079555	560.6018329232194	4335.010009188417	-514.305743425007	637.6183065550508	4214.880435876952	-400.6175672677791	616.7501040842153	4282.9975541037775	-380.29057528624594	607.2848468570222	4375.215466175121	-539.2086685433446	-690.368962032169	3765.9014969817636	-583.4916109373606	-930.2651134955545	3599.296127302989	-465.1923376176732	-780.3299788444667	3617.1492422467436	-442.83786893192706	-580.2505397744333	3749.4044377026935	-725.1337766156387	-323.72019123589894	3828.553088563596	-767.4642672042091	-51.736268667810386	3872.178448885821	-731.6136500256902	62.44224981016505	3859.5873877471718	-614.2502050716787	76.60453309766453	3861.633529739991	-620.7543691952849	82.33533152001361	3953.1659783734763	-748.8147125949034	-635.2103941956663	3884.996737183538	-461.8963562986495	-415.31688807672003	4110.998295965275	-444.5215429193447	-163.28644646840223	4095.050991108961	-366.7603456353453	-44.00870707888301	4102.508016838036	-383.82198135734404	-5.613309515502832	4153.606860248576	-370.03858826537385	-33.00608902266422	4152.009659774762	-335.4539695150751
